HIERARCHY
ROOT Hips
{
	OFFSET 0.000000 0.000000 0.000000
	CHANNELS 6 Xposition Yposition Zposition Zrotation Yrotation Xrotation 
	JOINT LHipJoint
	{
		OFFSET 0.000000 0.000000 0.000000
		CHANNELS 3 Zrotation Yrotation Xrotation
		JOINT LeftUpLeg
		{
			OFFSET 1.363060 -1.794630 0.839290
			CHANNELS 3 Zrotation Yrotation Xrotation
			JOINT LeftLeg
			{
				OFFSET 2.448110 -6.726130 0.000000
				CHANNELS 3 Zrotation Yrotation Xrotation
				JOINT LeftFoot
				{
					OFFSET 2.562200 -7.039590 0.000000
					CHANNELS 3 Zrotation Yrotation Xrotation
					JOINT LeftToeBase
					{
						OFFSET 0.157640 -0.433110 2.322550
						CHANNELS 3 Zrotation Yrotation Xrotation
						End Site
						{
							OFFSET 0.000000 0.000000 0.000000
						}
					}
				}
			}
		}
	}
	JOINT RHipJoint
	{
		OFFSET 0.000000 0.000000 0.000000
		CHANNELS 3 Zrotation Yrotation Xrotation
		JOINT RightUpLeg
		{
			OFFSET -1.305520 -1.794630 0.839290
			CHANNELS 3 Zrotation Yrotation Xrotation
			JOINT RightLeg
			{
				OFFSET -2.542530 -6.985550 0.000000
				CHANNELS 3 Zrotation Yrotation Xrotation
				JOINT RightFoot
				{
					OFFSET -2.568260 -7.056230 0.000000
					CHANNELS 3 Zrotation Yrotation Xrotation
					JOINT RightToeBase
					{
						OFFSET -0.164730 -0.452590 2.363150
						CHANNELS 3 Zrotation Yrotation Xrotation
						End Site
						{
							OFFSET 0.000000 0.000000 0.000000
						}
					}
				}
			}
		}
	}
	JOINT LowerBack
	{
		OFFSET 0.000000 0.000000 0.000000
		CHANNELS 3 Zrotation Yrotation Xrotation
		JOINT Spine
		{
			OFFSET 0.028270 2.035590 -0.193380
			CHANNELS 3 Zrotation Yrotation Xrotation
			JOINT Spine1
			{
				OFFSET 0.056720 2.048850 -0.042750
				CHANNELS 3 Zrotation Yrotation Xrotation
				JOINT Neck
				{
					OFFSET 0.000000 0.000000 0.000000
					CHANNELS 3 Zrotation Yrotation Xrotation
					JOINT Neck1
					{
						OFFSET -0.054170 1.746240 0.172020
						CHANNELS 3 Zrotation Yrotation Xrotation
						JOINT Head
						{
							OFFSET 0.104070 1.761360 -0.123970
							CHANNELS 3 Zrotation Yrotation Xrotation
							End Site
							{
								OFFSET 0.000000 0.000000 0.000000
							}
						}
					}
				}
				JOINT LeftShoulder
				{
					OFFSET 0.000000 0.000000 0.000000
					CHANNELS 3 Zrotation Yrotation Xrotation
					JOINT LeftArm
					{
						OFFSET 3.362410 1.200890 -0.311210
						CHANNELS 3 Zrotation Yrotation Xrotation
						JOINT LeftForeArm
						{
							OFFSET 4.983000 -0.000000 -0.000000
							CHANNELS 3 Zrotation Yrotation Xrotation
							JOINT LeftHand
							{
								OFFSET 3.483560 -0.000000 -0.000000
								CHANNELS 3 Zrotation Yrotation Xrotation
								JOINT LeftFingerBase
								{
									OFFSET 0.000000 0.000000 0.000000
									CHANNELS 3 Zrotation Yrotation Xrotation
									JOINT LeftHandIndex1
									{
										OFFSET 0.715260 -0.000000 -0.000000
										CHANNELS 3 Zrotation Yrotation Xrotation
										End Site
										{
											OFFSET 0.000000 0.000000 0.000000
										}
									}
								}
								JOINT LThumb
								{
									OFFSET 0.000000 0.000000 0.000000
									CHANNELS 3 Zrotation Yrotation Xrotation
									End Site
									{
										OFFSET 0.000000 0.000000 0.000000
									}
								}
							}
						}
					}
				}
				JOINT RightShoulder
				{
					OFFSET 0.000000 0.000000 0.000000
					CHANNELS 3 Zrotation Yrotation Xrotation
					JOINT RightArm
					{
						OFFSET -3.136600 1.374050 -0.404650
						CHANNELS 3 Zrotation Yrotation Xrotation
						JOINT RightForeArm
						{
							OFFSET -5.241900 -0.000000 -0.000000
							CHANNELS 3 Zrotation Yrotation Xrotation
							JOINT RightHand
							{
								OFFSET -3.444170 -0.000000 -0.000000
								CHANNELS 3 Zrotation Yrotation Xrotation
								JOINT RightFingerBase
								{
									OFFSET 0.000000 0.000000 0.000000
									CHANNELS 3 Zrotation Yrotation Xrotation
									JOINT RightHandIndex1
									{
										OFFSET -0.622530 -0.000000 -0.000000
										CHANNELS 3 Zrotation Yrotation Xrotation
										End Site
										{
											OFFSET 0.000000 0.000000 0.000000
										}
									}
								}
								JOINT RThumb
								{
									OFFSET 0.000000 0.000000 0.000000
									CHANNELS 3 Zrotation Yrotation Xrotation
									End Site
									{
										OFFSET 0.000000 0.000000 0.000000
									}
								}
							}
						}
					}
				}
			}
		}
	}
}
MOTION
Frames: 5
Frame Time: 0.008333
5.775614 17.606517 1.553322 2.049970 81.229224 21.216624 -10.246301 0.754715 -2.036366 -8.770838 4.559510 -14.504926 -2.173304 0.011984 13.544510 0.519886 3.115729 -1.521514 0.409200 -0.000000 -44.824200 9.971549 0.607944 -1.883412 5.069367 -1.322226 -36.568840 0.913046 -3.171981 40.654053 -1.126605 -4.590146 -0.547043 -0.863700 -0.000000 -34.849100 -0.406637 -0.918378 6.142014 -1.183671 -0.711882 -1.836819 -7.889160 -0.802721 -0.292136 6.215923 5.795665 5.368537 -5.080383 -0.425963 3.043332 0.000000 0.000000 0.000000 -6.616754 -7.589153 1.992986 -66.162842 -27.396475 26.372687 -2.969075 -39.647976 -0.009062 4.236749 -2.211456 -0.091914 -0.137474 0.229370 -0.000000 0.000000 0.000000 0.000000 0.000000 0.000000 0.000000 18.397396 3.504350 0.606221 67.688460 14.291921 2.977976 3.252314 20.693474 0.011625 4.047376 7.311919 0.259588 0.039339 -0.086404 -0.000000 0.000000 0.000000 0.000000 0.000000 0.000000 0.000000 
5.931719 17.604917 1.581243 1.511065 81.105416 20.712042 -10.294966 0.806830 -2.122489 -8.592463 4.962019 -13.801952 -2.174423 0.011045 13.223166 0.490237 2.928048 -1.316582 0.400700 0.000000 -45.791000 9.855451 0.640896 -1.649149 5.006746 -0.860673 -36.756337 1.083626 -2.961127 38.042458 -1.080395 -4.335693 -0.468216 -0.866701 0.000000 -34.507600 -0.159663 -0.977812 6.015237 -1.119710 -0.782561 -1.871527 -7.876476 -0.875024 -0.323164 6.328285 5.678246 5.270836 -5.044745 -0.424283 3.030569 0.000000 0.000000 0.000000 -6.452684 -7.598472 1.940740 -66.606468 -27.923930 26.909331 -2.925381 -40.500548 -0.009619 4.280143 -2.276479 -0.095781 -0.139863 0.238760 0.000000 0.000000 0.000000 0.000000 0.000000 0.000000 0.000000 18.373977 3.446773 0.697165 67.267877 13.920445 2.636010 3.287678 20.532504 0.011928 4.081252 7.308363 0.261491 0.041133 -0.086651 -0.000000 0.000000 0.000000 0.000000 0.000000 0.000000 0.000000 
6.088774 17.599206 1.611094 1.093155 80.979823 20.350522 -10.338664 0.860128 -2.207429 -8.433416 5.360077 -13.142036 -2.177983 0.010804 12.944076 0.462670 2.747315 -1.138323 0.390500 0.000000 -46.619200 9.746484 0.668708 -1.397353 4.915472 -0.401112 -36.929643 1.249027 -2.731772 35.306071 -1.026931 -4.068607 -0.230226 -0.879600 0.000000 -34.159200 0.070870 -1.034210 5.869443 -1.058930 -0.850998 -1.908332 -7.860183 -0.944887 -0.347120 6.440422 5.551219 5.165021 -5.008087 -0.422544 3.015577 0.000000 0.000000 0.000000 -6.277444 -7.578720 1.885339 -67.050393 -28.462061 27.428405 -2.885305 -41.297383 -0.010148 4.312195 -2.326411 -0.098751 -0.142196 0.247740 -0.000000 0.000000 0.000000 0.000000 0.000000 0.000000 0.000000 18.344689 3.382578 0.785267 66.851532 13.573928 2.336939 3.322223 20.350505 0.012231 4.087063 7.316258 0.262097 0.043166 -0.086946 -0.000000 0.000000 0.000000 0.000000 0.000000 0.000000 0.000000 
6.246885 17.589630 1.642789 0.814491 80.857373 20.151534 -10.377283 0.915546 -2.289647 -8.297132 5.752099 -12.528611 -2.184421 0.011175 12.707779 0.436548 2.570459 -0.981643 0.378699 0.000000 -47.316600 9.646641 0.692318 -1.128940 4.793256 0.042109 -37.097675 1.410119 -2.483779 32.457867 -0.964331 -3.781505 0.136595 -0.897000 0.000001 -33.822501 0.284588 -1.088326 5.703363 -1.001257 -0.918038 -1.949146 -7.839921 -1.013520 -0.369819 6.553911 5.429373 5.058194 -4.969652 -0.420756 3.000410 0.000000 0.000000 0.000000 -6.095936 -7.552085 1.829279 -67.483367 -28.981106 27.914419 -2.846553 -42.060106 -0.010671 4.335627 -2.359144 -0.100921 -0.144347 0.256317 -0.000000 0.000000 0.000000 0.000000 0.000000 0.000000 0.000000 18.307735 3.325039 0.871895 66.442348 13.229814 2.039500 3.355279 20.157776 0.012527 4.074394 7.326498 0.261502 0.045316 -0.087296 -0.000000 0.000000 0.000000 0.000000 0.000000 0.000000 0.000000 
6.405726 17.576572 1.676163 0.694257 80.734090 20.119596 -10.408563 0.973206 -2.373050 -8.187059 6.128676 -11.918684 -2.192404 0.010952 12.476555 0.413252 2.415157 -0.826191 0.368800 -0.000001 -47.957600 9.558643 0.714916 -0.851764 4.633094 0.460076 -37.242665 1.567525 -2.217623 29.510961 -0.890977 -3.465041 0.591456 -0.911700 0.000000 -33.544201 0.478514 -1.138620 5.532342 -0.947250 -0.981240 -1.993657 -7.814556 -1.078867 -0.402314 6.670126 5.331381 4.962175 -4.928616 -0.418953 2.988138 0.000000 0.000000 0.000000 -5.907726 -7.563460 1.774524 -67.889126 -29.428859 28.328891 -2.803513 -42.829243 -0.011258 4.357721 -2.363873 -0.101997 -0.146038 0.264494 -0.000000 0.000000 0.000000 0.000000 0.000000 0.000000 0.000000 18.260739 3.291398 0.961075 66.043395 12.866306 1.693808 3.386601 19.960058 0.012820 4.058371 7.334714 0.260606 0.047416 -0.087772 -0.000000 0.000000 0.000000 0.000000 0.000000 0.000000 0.000000 
